<svg viewBox="0 0 359 478" version="1.1" xmlns="http://www.w3.org/2000/svg" xmlns:xlink="http://www.w3.org/1999/xlink">
    <g stroke="none" stroke-width="1" fill="none" fill-rule="evenodd">
        <g transform="translate(-16.000000, -171.000000)" fill="#252525" fill-rule="nonzero">
            <path d="M193.520221,648.973853 C97.1709559,650.29788 16,601.308866 16,508.62696 C16,423.227199 87.9319853,374.900203 155.244485,368.280067 C102.450368,354.37778 68.7941176,321.939111 68.7941176,272.288088 C68.7941176,210.720819 116.96875,171 192.200368,171 C243.014706,171 280.630515,192.84645 280.630515,225.285119 C280.630515,238.525392 269.411765,250.441638 256.873162,251.765665 C247.634191,212.70686 226.516544,185.5643 189.560662,185.5643 C143.365809,185.5643 117.628676,220.651023 117.628676,266.991979 C117.628676,332.53133 155.244485,358.349862 217.9375,362.321944 L223.876838,376.22423 C146.665441,374.900203 74.0735294,412.634981 74.0735294,505.978905 C74.0735294,586.74457 118.948529,633.747539 194.180147,633.747539 C274.691176,633.747539 333.424632,575.490338 333.424632,502.00682 C333.424632,462.286004 316.926471,417.93109 272.051471,417.93109 C243.674632,417.93109 229.15625,439.115527 229.15625,463.610032 C229.15625,484.132455 236.415441,502.668837 249.613971,513.261055 C244.334559,516.571123 236.415441,517.895151 230.476103,517.895151 C210.678309,517.895151 192.200368,505.316891 192.200368,475.526277 C192.200368,429.185322 235.755515,406.014845 258.852941,389.464503 L264.182761,385.698684 C292.498632,365.656374 327.485294,339.694317 327.485294,306.712798 C327.485294,290.82447 318.90625,279.570238 304.387868,274.936143 C308.347426,268.97802 318.246324,261.69587 331.444853,261.69587 C356.522059,261.69587 369.060662,279.570238 369.060662,302.740716 C369.060662,323.713308 356.124783,342.739382 336.656286,357.249532 L336.064338,357.687848 C318.246324,370.928121 291.189338,385.492421 261.492647,405.352831 C335.404412,394.760613 375,443.087609 375,500.682796 C375,591.378666 295.808824,647.649825 193.520221,648.973853 Z" id="&amp;" transform="translate(195.500000, 410.000000) rotate(-360.000000) translate(-195.500000, -410.000000) "></path>
        </g>
    </g>
</svg>